<svg width="382" height="494" viewBox="0 0 382 494" fill="none" xmlns="http://www.w3.org/2000/svg">
<g filter="url(#filter0_i_0_3)">
<path fill-rule="evenodd" clip-rule="evenodd" d="M184.861 4.75C185.785 7.608 186.396 13.155 186.395 18.675C186.394 32.752 181.219 46.603 167.534 69.152C151.958 94.817 147.065 109.558 147.003 131C146.968 143.096 148.636 154.044 151.384 159.748C153.192 163.502 151.118 163.717 148.079 160.092C144.1 155.346 138.929 142.162 137.168 132.272C133.538 111.89 131.47 103.733 128.171 96.77C123.931 87.822 115.741 82.064 107.194 82.022L102.757 82L105.354 84.75C109.821 89.479 112.372 95.639 112.896 102.961C113.896 116.933 109.874 126.086 90.9075 153C85.9595 160.021 81.3695 169.255 78.4785 178C77.1415 182.045 76.6575 186.609 76.6465 195.249C76.6385 201.711 76.4705 206.999 76.2745 206.999C76.0785 207 73.8285 204.822 71.2745 202.159C60.7155 191.15 49.2805 185.271 32.7215 182.337C22.8685 180.591 15.6255 181.038 5.02347 184.045C-1.31053 185.842 -1.42853 186.354 3.39847 191.115C8.50447 196.149 11.8475 202.326 15.2445 213C17.5135 220.129 17.6255 221.737 17.5145 245.5C17.4505 259.25 16.8455 282.2 16.1705 296.5C15.2465 316.084 15.2195 325.461 16.0615 334.5C19.2945 369.208 31.6965 400.118 53.1275 426.886C62.8255 439 69.1315 445.306 81.2455 455.004C101.96 471.589 124.821 482.665 152.131 489.348C160.826 491.475 181.613 494 190.436 494H197.558L203.879 487.25C212.562 477.978 217.28 468.365 217.901 458.675C219.023 441.203 209.536 427.151 186.489 412.146C164.656 397.932 152.235 387.788 143.357 376.921C138.738 371.267 137.069 369.917 134.172 369.489C121.263 367.582 107.171 364.423 98.2355 361.435C92.5185 359.523 87.6485 358.15 87.4135 358.384C87.1795 358.619 87.6955 360.894 88.5595 363.44C89.4245 365.986 90.1315 368.864 90.1315 369.835C90.1315 370.806 90.5075 372.027 90.9665 372.55C91.4255 373.072 92.6085 375.75 93.5955 378.5C95.3335 383.339 106.464 405.506 113.055 417.25C114.829 420.412 115.834 423 115.287 423C113.688 423 103.394 413.197 95.3355 404C80.5855 387.166 68.3285 366.036 62.1305 346.757C60.1515 340.601 58.1315 337.198 58.1315 340.021C58.1315 340.647 57.6225 345.473 57.0005 350.746C55.0655 367.156 58.2665 390.185 65.5365 412.142C68.6325 421.494 70.3035 425.938 76.5815 441.5C77.9875 444.985 77.9955 445.243 76.6445 443.5C75.7915 442.4 74.5115 440.806 73.8005 439.958C73.0885 439.109 69.4275 433.511 65.6655 427.516C37.6895 382.95 29.3135 332.908 41.7285 284.503C45.7945 268.654 54.3895 247.725 56.0515 249.631C56.4685 250.109 57.3115 253.875 57.9265 258C59.6655 269.672 64.5995 285.413 69.8125 295.92C73.5875 303.528 76.1155 307.051 82.0985 313.034C90.7075 321.645 97.5725 325.422 108.343 327.474C117.079 329.139 118.398 328.785 116.954 325.165C115.368 321.186 114.708 294.646 115.991 286.423C119.625 263.136 132.552 236.29 150.164 215.461C152.896 212.23 155.1 209.117 155.061 208.543C155.023 207.969 150.736 204.384 145.536 200.575C140.336 196.766 136.242 193.167 136.439 192.576C136.636 191.986 142.384 190.054 149.214 188.284C156.043 186.513 164.331 184.325 167.631 183.421C182.969 179.223 190.412 179.26 203.219 183.601C217.024 188.281 222.461 187.908 248.631 180.487C251.931 179.551 256.059 178.439 257.805 178.015C261.932 177.014 266.465 173.74 269.826 169.333C272.262 166.139 272.634 165.967 273.762 167.51C274.447 168.447 276.247 174.228 277.762 180.357C280.104 189.835 280.525 193.667 280.573 206C280.621 218.077 280.334 221.043 278.855 223.75C277.879 225.538 276.904 227 276.689 227C276.474 227 274.865 224.059 273.114 220.465C270.75 215.612 269.505 214.051 268.28 214.404C267.373 214.665 262.724 216.049 257.948 217.48L249.265 220.08L247.622 225.028C246.718 227.75 245.601 230.21 245.14 230.495C244.679 230.78 243.512 228.945 242.546 226.418C240.537 221.157 241.051 221.208 227.631 224.939C223.231 226.163 214.73 228.442 208.741 230.004C198.394 232.703 197.584 233.109 192.491 238.138C189.543 241.05 187.131 243.705 187.131 244.039C187.131 245.076 195.265 248.72 203.603 251.419C209.555 253.346 213.679 254 219.874 254C227.176 254 228.961 253.616 234.733 250.801C238.954 248.744 243.013 245.722 246.114 242.328C250.912 237.078 250.942 237.063 252.389 239.276C253.189 240.499 254.176 242.554 254.584 243.843C255.237 245.908 255.745 246.107 258.867 245.522C267.01 243.994 269.287 242.671 270.646 238.676C271.361 236.572 272.237 234.56 272.593 234.205C274.595 232.203 277.673 244.899 276.723 251.238L276.051 255.719L267.879 256.401C260.335 257.03 258.744 257.59 247.169 263.699C227.964 273.834 226.096 274.647 219.315 275.826C209.813 277.477 199.838 274.961 193.59 269.337C186.746 263.176 187.406 263.377 184.572 266.595C171.842 281.052 174.119 307.813 189.236 321.404C196.791 328.197 206.113 332.389 229.397 339.463C263.244 349.747 275.699 354.995 287.811 364.076C298.776 372.296 309.436 384.715 316.727 397.76C319.998 403.612 327.131 421.736 327.131 424.193C327.131 427.748 329.71 425.875 334.631 418.748C340.337 410.482 340.453 410.294 344.996 401.876C355.026 383.29 361.625 362.714 364.182 342.054C365.83 328.745 365.84 312.018 364.228 269.5C363.098 239.702 363.065 230.845 364.061 224C366.258 208.89 370.276 199.757 378.496 191.191C382.455 187.064 382.546 186.83 380.631 185.691C378.088 184.177 363.779 181.106 358.988 181.046C354.421 180.988 341.083 183.622 335.131 185.757C327.123 188.629 319.806 193.315 312.518 200.237L305.385 207.013L305.401 196.756C305.432 177.77 300.415 165.484 282.922 141.7C266.935 119.964 264.17 102.987 274.147 87.822C277.838 82.211 277.852 82.156 275.257 83.142C270.438 84.974 262.685 89.83 257.503 94.264C240.139 109.122 229.158 131.762 229.138 152.75C229.134 156.738 228.698 160 228.17 160C226.174 160 218.699 151.296 216.419 146.318C215.114 143.468 213.339 137.393 212.475 132.818C210.61 122.946 211.227 117.038 216.632 93C223.549 62.245 220.649 42.386 206.121 21C204.066 17.975 200.525 13.53 198.253 11.122C194.336 6.97 185.392 0 183.982 0C183.622 0 184.017 2.137 184.861 4.75ZM203.835 196.204C202.99 196.741 203.108 196.974 204.232 196.985C206.892 197.01 215.395 201.931 219.303 205.707L222.976 209.254L229.003 203.949C232.317 201.032 234.801 198.275 234.521 197.822C234.242 197.37 231.002 196.968 227.322 196.929C223.642 196.89 217.123 196.539 212.835 196.148C208.547 195.758 204.497 195.783 203.835 196.204Z" fill="#6D0F04"/>
</g>
<defs>
<filter id="filter0_i_0_3" x="-4" y="0" width="385.847" height="498" filterUnits="userSpaceOnUse" color-interpolation-filters="sRGB">
<feFlood flood-opacity="0" result="BackgroundImageFix"/>
<feBlend mode="normal" in="SourceGraphic" in2="BackgroundImageFix" result="shape"/>
<feColorMatrix in="SourceAlpha" type="matrix" values="0 0 0 0 0 0 0 0 0 0 0 0 0 0 0 0 0 0 127 0" result="hardAlpha"/>
<feOffset dx="-4" dy="8"/>
<feGaussianBlur stdDeviation="2"/>
<feComposite in2="hardAlpha" operator="arithmetic" k2="-1" k3="1"/>
<feColorMatrix type="matrix" values="0 0 0 0 0 0 0 0 0 0 0 0 0 0 0 0 0 0 0.35 0"/>
<feBlend mode="normal" in2="shape" result="effect1_innerShadow_0_3"/>
</filter>
</defs>
</svg>
